<?xml version="1.0" encoding="utf-8"?>
<!-- Generator: Adobe Illustrator 23.0.0, SVG Export Plug-In . SVG Version: 6.00 Build 0)  -->
<svg version="1.1" id="Layer_1" xmlns="http://www.w3.org/2000/svg" xmlns:xlink="http://www.w3.org/1999/xlink" x="0px" y="0px"
	 viewBox="0 0 326.41 111.41" style="enable-background:new 0 0 326.41 111.41;" xml:space="preserve">
<style type="text/css">
	.st0{fill:#F89839;}
	.st1{fill:#086699;}
	.st2{fill:#FFFFFF;}
	.st3{fill:#FFFFFF;stroke:#FFFFFF;stroke-width:0.75;stroke-miterlimit:10;}
</style>
<g>
	<g>
		<path class="st0" d="M54.52,2.74c-28.38,0-51.38,23-51.38,51.38c0,28.38,23,51.38,51.38,51.38c28.38,0,51.38-23,51.38-51.38
			C105.9,25.74,82.9,2.74,54.52,2.74z M60.59,96.71C37.07,96.71,18,77.64,18,54.12c0-23.52,19.07-42.59,42.59-42.59
			c23.52,0,42.59,19.07,42.59,42.59C103.18,77.64,84.11,96.71,60.59,96.71z"/>
	</g>
	<g>
		<circle class="st1" cx="60.59" cy="54.12" r="38.77"/>
	</g>
	<g>
		<path class="st2" d="M115.73,53.63v-1.47c0-3.93,1.37-7.97,4.81-10.92c1.91-1.69,3.99-2.62,6.12-2.89
			c1.86,0.05,3.55,0.71,4.42,1.75c0.49,0.6,0.6,1.15,0.33,1.91c-0.16,0.55-0.76,1.31-1.31,1.75c-0.6,0.38-1.04,0.27-1.58-0.11
			c-1.09-0.98-2.62-2.24-4.42-2.24c-4.04,0-4.04,5.52-4.04,9.67v2.57h5.79c0.33,0.49,0.05,1.86-0.55,2.24h-5.24v15.78
			c0,3.93,0.6,3.99,4.7,4.42v1.53h-12.83v-1.53c3.44-0.33,3.82-0.55,3.82-4.1V55.87h-3.88l-0.22-0.6l1.2-1.64H115.73z"/>
		<path class="st2" d="M140.25,77.61h-12.56v-1.53c3.44-0.33,3.77-0.6,3.77-4.15V60.57c0-3.6-0.22-3.77-3.39-4.15v-1.37
			c2.68-0.44,5.13-1.09,7.7-2.24c0,1.8,0,4.21,0,6.01c1.91-2.84,4.21-5.84,6.94-5.84c2.02,0,3.17,1.26,3.17,2.62
			c0,1.26-0.87,2.46-1.86,3c-0.55,0.33-0.98,0.27-1.42-0.11c-0.82-0.82-1.47-1.37-2.46-1.37c-1.15,0-3.17,1.69-4.37,4.48v10.27
			c0,3.6,0.27,3.88,4.48,4.21V77.61z"/>
		<path class="st2" d="M148.39,77.61v-1.53c3.44-0.33,3.82-0.6,3.82-4.31V60.51c0-3.38-0.16-3.6-3.44-4.15v-1.31
			c2.84-0.49,5.41-1.2,7.75-2.18c0,2.29,0,4.59,0,6.88v12.01c0,3.71,0.38,3.99,3.93,4.31v1.53H148.39z M154.07,47.51
			c-1.53,0-2.89-1.37-2.89-2.89c0-1.75,1.37-3,2.95-3c1.53,0,2.79,1.26,2.79,3C156.91,46.15,155.65,47.51,154.07,47.51z"/>
		<path class="st2" d="M199.56,62.7c-3.39,0.44-3.6,0.76-3.6,3.99v4.59c0,1.91,0.05,3.71,0.33,5.19c-3.39,0.76-7.81,1.97-12.4,1.97
			c-12.4,0-19.93-7.7-19.93-18.68c0-11.52,9.39-18.4,20.31-18.4c5.57,0,9.67,1.09,11.36,1.37c0.11,2.02,0.38,5.35,0.82,8.79
			l-1.64,0.33c-1.31-4.64-2.89-6.61-6.33-7.75c-1.26-0.44-3.5-0.71-5.08-0.71c-8.36,0-13.76,5.73-13.76,15.73
			c0,8.68,4.48,17.31,15.07,17.31c1.86,0,3.55-0.38,4.64-0.93c1.15-0.66,1.86-1.26,1.86-3.5V67.5c0-3.99-0.44-4.42-5.68-4.81v-1.58
			h14.03V62.7z"/>
		<path class="st2" d="M202.56,77.61v-1.53c3.5-0.33,3.93-0.6,3.93-4.21V45.71c0-3.33-0.27-3.66-3.77-4.1V40.2
			c2.95-0.33,6.33-1.2,8.08-1.86c0,2.57,0,5.19,0,7.75v25.78c0,3.6,0.33,3.88,3.88,4.21v1.53H202.56z"/>
		<path class="st2" d="M229.76,52.98c6.83,0,11.91,5.19,11.91,12.23c0,8.85-6.55,13.05-11.91,13.05c-7.54,0-12.12-6.06-12.12-12.18
			C217.63,57.18,224.57,52.98,229.76,52.98z M229.1,54.83c-3.33,0-6.33,3.22-6.33,9.56c0,6.94,3.06,11.96,7.54,11.96
			c3.39,0,6.23-2.46,6.23-9.94C236.53,60.02,233.91,54.83,229.1,54.83z"/>
		<path class="st2" d="M256.68,53.52c0.93-0.38,1.75-0.55,2.4-0.55c5.84,0,10.76,5.08,10.76,11.58c0,7.37-6.33,13.76-13.49,13.71
			c-2.35,0-5.41-0.55-8.41-1.97c0-1.42,0-2.89,0-4.37V45.6c0-3.39-0.16-3.71-3.66-3.99V40.2c2.57-0.33,5.95-1.15,7.97-1.86
			c0,2.13,0,4.31,0,6.5v10.59L256.68,53.52z M252.26,71.27c0,0.87,0.05,1.37,0.27,1.91c0.66,1.37,2.79,2.95,5.41,2.95
			c4.7,0,7.04-4.04,7.04-10.21c0-6.23-3.77-9.88-8.3-9.88c-1.58,0-3.39,0.49-4.42,1.04V71.27z"/>
		<path class="st2" d="M290.98,78.26c-0.82,0-2.02-0.44-2.57-1.04c-0.71-0.71-1.04-1.47-1.31-2.46c-2.18,1.47-4.86,3.5-6.55,3.5
			c-3.88,0-6.66-3.22-6.66-6.72c0-2.68,1.47-4.42,4.48-5.46c3.33-1.15,7.43-2.57,8.63-3.55v-1.09c0-3.88-1.97-6.12-4.81-6.12
			c-1.26,0-2.02,0.6-2.57,1.26c-0.6,0.76-0.98,1.97-1.47,3.55c-0.27,0.87-0.76,1.26-1.58,1.26c-1.04,0-2.4-1.09-2.4-2.4
			c0-0.76,0.71-1.42,1.8-2.18c1.58-1.15,4.75-3.17,7.86-3.82c1.64,0,3.33,0.49,4.59,1.47c1.91,1.64,2.79,3.5,2.79,6.33v10.54
			c0,2.51,0.93,3.28,1.91,3.28c0.66,0,1.37-0.27,1.97-0.6l0.55,1.53L290.98,78.26z M286.99,64.44c-1.2,0.6-3.82,1.75-5.08,2.29
			c-2.08,0.93-3.33,1.97-3.33,3.99c0,2.89,2.18,4.21,3.93,4.21c1.42,0,3.39-0.87,4.48-1.97C286.99,70.4,286.99,67.01,286.99,64.44z"
			/>
		<path class="st2" d="M297.09,77.61v-1.53c3.5-0.33,3.93-0.6,3.93-4.21V45.71c0-3.33-0.27-3.66-3.77-4.1V40.2
			c2.95-0.33,6.33-1.2,8.08-1.86c0,2.57,0,5.19,0,7.75v25.78c0,3.6,0.33,3.88,3.88,4.21v1.53H297.09z"/>
	</g>
	<g>
		<path class="st2" d="M71.58,22.72L44.82,85.87l15.51-13.41h20.73l14.08,13.35L71.58,22.72z M77.47,63.88H63.82l7.12-20.23
			L77.47,63.88z"/>
	</g>
	<g>
		<rect x="107.72" y="87.04" class="st2" width="207.02" height="0.75"/>
	</g>
	<g>
		<path class="st2" d="M113.01,102.03h-1.56v-7.55h1.56V102.03z"/>
		<path class="st2" d="M124.31,102.03h-1.56l-3.03-4.97v4.97h-1.56v-7.55h1.56l3.03,4.98v-4.98h1.55V102.03z"/>
		<path class="st2" d="M133.3,100.05c0-0.29-0.1-0.52-0.31-0.68c-0.21-0.16-0.58-0.32-1.12-0.5s-0.97-0.35-1.28-0.52
			c-0.86-0.46-1.29-1.09-1.29-1.87c0-0.41,0.11-0.77,0.34-1.09c0.23-0.32,0.56-0.57,0.99-0.75s0.91-0.27,1.45-0.27
			c0.54,0,1.02,0.1,1.44,0.29s0.75,0.47,0.98,0.83c0.23,0.36,0.35,0.76,0.35,1.21h-1.56c0-0.34-0.11-0.61-0.33-0.81
			c-0.22-0.19-0.52-0.29-0.92-0.29c-0.38,0-0.68,0.08-0.89,0.24s-0.32,0.37-0.32,0.63c0,0.25,0.12,0.45,0.37,0.62
			c0.25,0.17,0.61,0.32,1.09,0.47c0.88,0.27,1.53,0.6,1.93,0.99c0.4,0.39,0.61,0.88,0.61,1.47c0,0.65-0.25,1.17-0.74,1.54
			c-0.49,0.37-1.16,0.56-2,0.56c-0.58,0-1.11-0.11-1.59-0.32c-0.48-0.21-0.84-0.5-1.09-0.87c-0.25-0.37-0.38-0.8-0.38-1.29h1.56
			c0,0.83,0.5,1.25,1.49,1.25c0.37,0,0.66-0.08,0.87-0.23C133.2,100.53,133.3,100.32,133.3,100.05z"/>
		<path class="st2" d="M145.34,94.48v4.97c0,0.83-0.26,1.48-0.78,1.96s-1.22,0.72-2.12,0.72c-0.88,0-1.58-0.23-2.1-0.7
			c-0.52-0.47-0.78-1.11-0.79-1.92v-5.03h1.56v4.98c0,0.49,0.12,0.85,0.35,1.08s0.56,0.34,0.98,0.34c0.87,0,1.32-0.46,1.33-1.38
			v-5.02H145.34z"/>
		<path class="st2" d="M153.13,99.27h-1.24v2.76h-1.56v-7.55h2.81c0.89,0,1.58,0.2,2.06,0.6s0.73,0.96,0.73,1.69
			c0,0.51-0.11,0.94-0.33,1.29c-0.22,0.34-0.56,0.62-1.01,0.82l1.63,3.09v0.07h-1.67L153.13,99.27z M151.89,98.01h1.25
			c0.39,0,0.69-0.1,0.91-0.3c0.21-0.2,0.32-0.47,0.32-0.82c0-0.36-0.1-0.64-0.3-0.84c-0.2-0.2-0.51-0.31-0.93-0.31h-1.25V98.01z"/>
		<path class="st2" d="M165.09,100.48h-2.73l-0.52,1.56h-1.65l2.81-7.55h1.44l2.83,7.55h-1.65L165.09,100.48z M162.78,99.22h1.89
			l-0.95-2.83L162.78,99.22z"/>
		<path class="st2" d="M177.83,102.03h-1.56l-3.03-4.97v4.97h-1.56v-7.55h1.56l3.03,4.98v-4.98h1.55V102.03z"/>
		<path class="st2" d="M188.83,99.52c-0.06,0.81-0.36,1.45-0.9,1.92c-0.54,0.47-1.25,0.7-2.14,0.7c-0.97,0-1.73-0.33-2.28-0.98
			c-0.55-0.65-0.83-1.55-0.83-2.68v-0.46c0-0.73,0.13-1.37,0.38-1.92c0.25-0.55,0.62-0.98,1.1-1.27c0.48-0.3,1.03-0.44,1.66-0.44
			c0.87,0,1.57,0.23,2.11,0.7c0.53,0.47,0.84,1.12,0.92,1.96h-1.56c-0.04-0.49-0.17-0.84-0.41-1.06c-0.23-0.22-0.59-0.33-1.07-0.33
			c-0.52,0-0.91,0.19-1.16,0.56c-0.26,0.37-0.39,0.95-0.4,1.73v0.57c0,0.82,0.12,1.41,0.37,1.79c0.25,0.38,0.64,0.56,1.17,0.56
			c0.48,0,0.84-0.11,1.08-0.33c0.24-0.22,0.37-0.56,0.41-1.02H188.83z"/>
		<path class="st2" d="M198.11,98.76h-2.99v2.02h3.5v1.25h-5.06v-7.55h5.05v1.26h-3.5v1.8h2.99V98.76z"/>
		<path class="st2" d="M209.62,102.03v-7.55h2.64c0.92,0,1.61,0.18,2.08,0.53c0.47,0.35,0.71,0.87,0.71,1.54
			c0,0.37-0.09,0.7-0.29,0.98c-0.19,0.28-0.46,0.49-0.79,0.62c0.39,0.1,0.69,0.29,0.92,0.59c0.22,0.29,0.33,0.65,0.33,1.08
			c0,0.73-0.23,1.28-0.69,1.65c-0.46,0.37-1.12,0.56-1.98,0.57H209.62z M211.18,97.65h1.15c0.78-0.01,1.18-0.33,1.18-0.94
			c0-0.34-0.1-0.59-0.3-0.74c-0.2-0.15-0.51-0.23-0.94-0.23h-1.09V97.65z M211.18,98.75v2.04h1.33c0.37,0,0.65-0.09,0.86-0.26
			c0.21-0.17,0.31-0.42,0.31-0.72c0-0.69-0.36-1.04-1.07-1.05H211.18z"/>
		<path class="st2" d="M222.91,99.27h-1.24v2.76h-1.56v-7.55h2.81c0.89,0,1.58,0.2,2.06,0.6c0.48,0.4,0.73,0.96,0.73,1.69
			c0,0.51-0.11,0.94-0.33,1.29c-0.22,0.34-0.56,0.62-1.01,0.82l1.63,3.09v0.07h-1.67L222.91,99.27z M221.67,98.01h1.25
			c0.39,0,0.69-0.1,0.91-0.3c0.21-0.2,0.32-0.47,0.32-0.82c0-0.36-0.1-0.64-0.3-0.84s-0.51-0.31-0.93-0.31h-1.25V98.01z"/>
		<path class="st2" d="M236.81,98.43c0,0.74-0.13,1.39-0.39,1.96c-0.26,0.56-0.64,0.99-1.13,1.3s-1.05,0.46-1.68,0.46
			c-0.63,0-1.18-0.15-1.67-0.45c-0.49-0.3-0.87-0.73-1.14-1.29s-0.41-1.2-0.41-1.93V98.1c0-0.74,0.13-1.4,0.4-1.96
			c0.27-0.56,0.65-1,1.14-1.3c0.49-0.3,1.05-0.45,1.68-0.45c0.63,0,1.19,0.15,1.68,0.45c0.49,0.3,0.87,0.74,1.14,1.3
			c0.27,0.57,0.4,1.22,0.4,1.96V98.43z M235.23,98.09c0-0.79-0.14-1.39-0.42-1.8s-0.69-0.62-1.21-0.62c-0.52,0-0.92,0.2-1.21,0.61
			c-0.28,0.41-0.43,1-0.43,1.79v0.37c0,0.77,0.14,1.37,0.42,1.79s0.69,0.64,1.22,0.64c0.52,0,0.92-0.21,1.2-0.61
			c0.28-0.41,0.42-1.01,0.42-1.79V98.09z"/>
		<path class="st2" d="M244.02,99l-0.81,0.87v2.16h-1.56v-7.55h1.56v3.42l0.68-0.94l1.92-2.48h1.91l-2.68,3.36l2.76,4.19h-1.85
			L244.02,99z"/>
		<path class="st2" d="M256.66,98.76h-2.99v2.02h3.5v1.25h-5.06v-7.55h5.05v1.26h-3.5v1.8h2.99V98.76z"/>
		<path class="st2" d="M264.6,99.27h-1.24v2.76h-1.56v-7.55h2.81c0.89,0,1.58,0.2,2.06,0.6c0.48,0.4,0.73,0.96,0.73,1.69
			c0,0.51-0.11,0.94-0.33,1.29c-0.22,0.34-0.56,0.62-1.01,0.82l1.63,3.09v0.07h-1.67L264.6,99.27z M263.36,98.01h1.25
			c0.39,0,0.69-0.1,0.91-0.3c0.21-0.2,0.32-0.47,0.32-0.82c0-0.36-0.1-0.64-0.3-0.84s-0.51-0.31-0.93-0.31h-1.25V98.01z"/>
		<path class="st2" d="M276.21,100.05c0-0.29-0.1-0.52-0.31-0.68c-0.21-0.16-0.58-0.32-1.12-0.5c-0.54-0.17-0.97-0.35-1.28-0.52
			c-0.86-0.46-1.29-1.09-1.29-1.87c0-0.41,0.12-0.77,0.34-1.09c0.23-0.32,0.56-0.57,0.99-0.75c0.43-0.18,0.91-0.27,1.45-0.27
			c0.54,0,1.02,0.1,1.44,0.29c0.42,0.2,0.75,0.47,0.98,0.83s0.35,0.76,0.35,1.21h-1.56c0-0.34-0.11-0.61-0.33-0.81
			c-0.22-0.19-0.52-0.29-0.92-0.29c-0.38,0-0.68,0.08-0.89,0.24s-0.32,0.37-0.32,0.63c0,0.25,0.12,0.45,0.37,0.62
			s0.61,0.32,1.09,0.47c0.89,0.27,1.53,0.6,1.93,0.99c0.4,0.39,0.61,0.88,0.61,1.47c0,0.65-0.25,1.17-0.74,1.54
			c-0.49,0.37-1.16,0.56-2,0.56c-0.58,0-1.11-0.11-1.59-0.32c-0.48-0.21-0.84-0.5-1.09-0.87c-0.25-0.37-0.38-0.8-0.38-1.29h1.56
			c0,0.83,0.5,1.25,1.49,1.25c0.37,0,0.66-0.08,0.87-0.23C276.11,100.53,276.21,100.32,276.21,100.05z"/>
		<path class="st2" d="M290.46,100.78h3.3v1.25h-4.86v-7.55h1.56V100.78z"/>
		<path class="st2" d="M302.99,95.74h-2.31v6.29h-1.55v-6.29h-2.28v-1.26h6.15V95.74z"/>
		<path class="st2" d="M307.59,102.03v-7.55h2.32c0.66,0,1.26,0.15,1.78,0.45c0.52,0.3,0.93,0.72,1.23,1.28
			c0.29,0.55,0.44,1.18,0.44,1.88v0.35c0,0.7-0.14,1.33-0.43,1.87c-0.29,0.55-0.7,0.97-1.22,1.27s-1.12,0.45-1.78,0.46H307.59z
			 M309.15,95.74v5.04h0.75c0.61,0,1.07-0.2,1.39-0.6s0.49-0.97,0.49-1.71v-0.4c0-0.77-0.16-1.35-0.48-1.75
			c-0.32-0.4-0.78-0.59-1.39-0.59H309.15z"/>
		<path class="st2" d="M317.56,101.3c0-0.24,0.08-0.43,0.24-0.58c0.16-0.15,0.36-0.22,0.6-0.22c0.25,0,0.45,0.07,0.61,0.22
			c0.16,0.15,0.24,0.34,0.24,0.58c0,0.24-0.08,0.43-0.24,0.57c-0.16,0.15-0.36,0.22-0.61,0.22c-0.25,0-0.45-0.07-0.61-0.22
			C317.64,101.72,317.56,101.53,317.56,101.3z"/>
	</g>
</g>
</svg>
